<?xml version="1.0" encoding="UTF-8" standalone="no"?>
<svg
   xmlns:dc="http://purl.org/dc/elements/1.1/"
   xmlns:cc="http://creativecommons.org/ns#"
   xmlns:rdf="http://www.w3.org/1999/02/22-rdf-syntax-ns#"
   xmlns:svg="http://www.w3.org/2000/svg"
   xmlns="http://www.w3.org/2000/svg"
   xmlns:sodipodi="http://sodipodi.sourceforge.net/DTD/sodipodi-0.dtd"
   xmlns:inkscape="http://www.inkscape.org/namespaces/inkscape"
   version="1.1"
   style="fill:none"
   width="674.99872"
   height="435"
   id="svg30"
   sodipodi:docname="colloseum.svg"
   inkscape:version="1.0.2 (e86c870879, 2021-01-15, custom)">
  <metadata
     id="metadata36">
    <rdf:RDF>
      <cc:Work
         rdf:about="">
        <dc:format>image/svg+xml</dc:format>
        <dc:type
           rdf:resource="http://purl.org/dc/dcmitype/StillImage" />
        <dc:title></dc:title>
      </cc:Work>
    </rdf:RDF>
  </metadata>
  <defs
     id="defs34" />
  <sodipodi:namedview
     pagecolor="#ffffff"
     bordercolor="#666666"
     borderopacity="1"
     objecttolerance="10"
     gridtolerance="10"
     guidetolerance="10"
     inkscape:pageopacity="0"
     inkscape:pageshadow="2"
     inkscape:window-width="735"
     inkscape:window-height="480"
     id="namedview32"
     showgrid="false"
     fit-margin-top="0"
     fit-margin-left="0"
     fit-margin-right="0"
     fit-margin-bottom="0"
     inkscape:zoom="0.61666667"
     inkscape:cx="337.49935"
     inkscape:cy="285"
     inkscape:window-x="376"
     inkscape:window-y="143"
     inkscape:window-maximized="0"
     inkscape:current-layer="svg30" />
  <path
     style="fill:none;stroke:#6a6a6a;stroke-width:15px;stroke-linecap:round;stroke-linejoin:round"
     d=""
     id="path24" />
  <path
     style="fill:none;stroke:#4a4a4a;stroke-width:15px;stroke-linecap:round;stroke-linejoin:round"
     d=""
     id="path26" />
  <path
     style="fill:none;stroke:hsl(0, 45%, 60%);stroke-width:15px;stroke-linecap:round;stroke-linejoin:round"
     d="m 337.49935,7.5 v 0 L 7.4993489,97.5 v 0 H 337.49935 m -255.000001,0 v 0 60 H 337.49935 m -240.000001,0 v 0 l 15.000001,30 h 60 l 15,-30 m -60,30 v 0 120 h 30 v -120 m -30,120 v 0 l -30.000001,30 h 90.000001 l -30,-30 m 60,-150 v 0 l 15,30 h 60 l 15,-30 m -60,30 v 0 120 h 30 v -120 m -30,120 v 0 l -30,30 h 90 l -30,-30 m -195.000001,45 v 0 H 337.49935 m -255.000001,0 v 0 l -30,30 H 337.49935 m -285.000001,0 v 0 h -15 l -30.0000001,45 H 337.49935 m 0,-390 a 15,15 0 0 0 -15,15 v 0 a 15,15 0 0 0 15,15 m 0,-30 v 0 0 m 0,-30 v 0 l 330,90 v 0 h -330 m 255,0 v 0 60 h -255 m 240,0 v 0 l -15,30 h -60 l -15,-30 m 60,30 v 0 120 h -30 v -120 m 30,120 v 0 l 30,30 h -90 l 30,-30 m -60,-150 v 0 l -15,30 h -60 l -15,-30 m 60,30 v 0 120 h -30 v -120 m 30,120 v 0 l 30,30 h -90 l 30,-30 m 195,45 v 0 h -255 m 255,0 v 0 l 30,30 h -285 m 285,0 v 0 h 15 l 30,45 h -330 m 0,-390 a 15,15 0 0 1 15,15 v 0 a 15,15 0 0 1 -15,15 m 0,-30 v 0 0"
     id="path28" />
</svg>
