<?xml version="1.0" encoding="UTF-8" standalone="no"?>
<!DOCTYPE svg PUBLIC "-//W3C//DTD SVG 1.1//EN" "http://www.w3.org/Graphics/SVG/1.1/DTD/svg11.dtd">
<svg width="100%" height="100%" viewBox="0 0 230 200" version="1.1" xmlns="http://www.w3.org/2000/svg" xmlns:xlink="http://www.w3.org/1999/xlink" xml:space="preserve" xmlns:serif="http://www.serif.com/" style="fill-rule:evenodd;clip-rule:evenodd;stroke-linecap:round;stroke-linejoin:round;">
    <path id="path3759" d="M159.501,69.501C126.364,69.501 99.501,96.364 99.501,129.501M159.501,69.501C192.638,69.501 219.501,96.364 219.501,129.501C219.501,162.638 192.638,189.501 159.501,189.501C126.364,189.501 99.501,162.638 99.501,129.501L99.501,189.501L159.501,189.501M99.501,189.501L114.501,174.501M189.501,114.501L189.501,129.501M144.501,114.501L144.501,129.501M69.501,159.501C69.501,134.648 62.785,114.501 54.501,114.501C29.648,114.501 9.501,134.648 9.501,159.501M69.501,159.501L39.501,159.501M159.501,9.501C126.364,9.501 99.501,16.217 99.501,24.501C99.501,32.785 126.364,39.501 159.501,39.501C192.638,39.501 219.501,32.785 219.501,24.501C219.501,16.217 192.638,9.501 159.501,9.501" style="fill:none;fill-rule:nonzero;stroke:rgb(199,107,107);stroke-width:19px;"/>
</svg>
