<?xml version="1.0" encoding="UTF-8" standalone="no"?>
<svg
   xmlns:dc="http://purl.org/dc/elements/1.1/"
   xmlns:cc="http://creativecommons.org/ns#"
   xmlns:rdf="http://www.w3.org/1999/02/22-rdf-syntax-ns#"
   xmlns:svg="http://www.w3.org/2000/svg"
   xmlns="http://www.w3.org/2000/svg"
   xmlns:sodipodi="http://sodipodi.sourceforge.net/DTD/sodipodi-0.dtd"
   xmlns:inkscape="http://www.inkscape.org/namespaces/inkscape"
   version="1.1"
   style="fill:none"
   width="195"
   height="240"
   id="svg30"
   sodipodi:docname="vector.svg"
   inkscape:version="1.0.2 (e86c870879, 2021-01-15, custom)">
  <metadata
     id="metadata36">
    <rdf:RDF>
      <cc:Work
         rdf:about="">
        <dc:format>image/svg+xml</dc:format>
        <dc:type
           rdf:resource="http://purl.org/dc/dcmitype/StillImage" />
        <dc:title></dc:title>
      </cc:Work>
    </rdf:RDF>
  </metadata>
  <defs
     id="defs34" />
  <sodipodi:namedview
     pagecolor="#ffffff"
     bordercolor="#666666"
     borderopacity="1"
     objecttolerance="10"
     gridtolerance="10"
     guidetolerance="10"
     inkscape:pageopacity="0"
     inkscape:pageshadow="2"
     inkscape:window-width="1920"
     inkscape:window-height="1009"
     id="namedview32"
     showgrid="false"
     fit-margin-top="0"
     fit-margin-left="0"
     fit-margin-right="0"
     fit-margin-bottom="0"
     inkscape:zoom="0.61666667"
     inkscape:cx="97.5"
     inkscape:cy="315"
     inkscape:window-x="-8"
     inkscape:window-y="-8"
     inkscape:window-maximized="1"
     inkscape:current-layer="svg30" />
  <path
     style="fill:#c76b6b;stroke:#c76b6b;stroke-width:15px;stroke-linecap:round;stroke-linejoin:round"
     d="m 82.5,142.5 v 0 l 15,90 v 0 l 15,-90 h -30 m -30,-75 a 45,45 0 0 0 45,-45 45,45 0 0 0 45,45 45,15 0 0 0 -45,15 45,15 0 0 0 -45,-15"
     id="path24" />
  <path
     style="fill:none;stroke:#4a4a4a;stroke-width:15px;stroke-linecap:round;stroke-linejoin:round"
     d=""
     id="path26" />
  <path
     style="fill:none;stroke:#c76b6b;stroke-width:15px;stroke-linecap:round;stroke-linejoin:round"
     d="m 97.5,7.5 a 90,60 0 0 1 -90,60 m 30,0 v 0 75 0 0 h 60 v 0 -15 m -30,15 v 0 30 a 45,60 0 0 1 -45,60 v 0 h 75 m -60,-165 v 0 h 60 m 0,-60 a 90,60 0 0 0 90,60 m -30,0 v 0 75 0 0 h -60 v 0 -15 m 30,15 v 0 30 a 45,60 0 0 0 45,60 v 0 h -75 m 60,-165 v 0 h -60"
     id="path28" />
</svg>
