<?xml version="1.0" encoding="UTF-8" standalone="no"?>
<!DOCTYPE svg PUBLIC "-//W3C//DTD SVG 1.1//EN" "http://www.w3.org/Graphics/SVG/1.1/DTD/svg11.dtd">
<svg width="100%" height="100%" viewBox="0 0 229 155" version="1.1" xmlns="http://www.w3.org/2000/svg" xmlns:xlink="http://www.w3.org/1999/xlink" xml:space="preserve" xmlns:serif="http://www.serif.com/" style="fill-rule:evenodd;clip-rule:evenodd;stroke-linecap:round;stroke-linejoin:round;">
    <path id="path3759" d="M69.499,54.635L69.499,99.635L114.499,99.635M69.499,54.635L114.499,54.635M99.499,9.635C99.499,34.488 65.921,54.635 24.499,54.635M99.499,9.635L114.499,9.635M69.499,99.635L39.499,99.635L9.499,144.635L204.499,144.635M99.499,84.635L114.499,84.635M114.499,24.635L84.499,54.635M159.499,54.635L159.499,99.635L114.499,99.635M159.499,54.635L114.499,54.635M129.499,9.635C129.499,34.488 163.078,54.635 204.499,54.635M129.499,9.635L114.499,9.635M159.499,99.635L189.499,99.635L219.499,144.635L24.499,144.635M129.499,84.635L114.499,84.635M114.499,24.635L144.499,54.635" style="fill:none;fill-rule:nonzero;stroke:rgb(199,107,107);stroke-width:19px;"/>
</svg>
