<?xml version="1.0" encoding="UTF-8" standalone="no"?>
<!DOCTYPE svg PUBLIC "-//W3C//DTD SVG 1.1//EN" "http://www.w3.org/Graphics/SVG/1.1/DTD/svg11.dtd">
<svg width="100%" height="100%" viewBox="0 0 230 305" version="1.1" xmlns="http://www.w3.org/2000/svg" xmlns:xlink="http://www.w3.org/1999/xlink" xml:space="preserve" xmlns:serif="http://www.serif.com/" style="fill-rule:evenodd;clip-rule:evenodd;stroke-linecap:round;stroke-linejoin:round;">
    <path id="path3759" d="M99.635,84.635L114.635,84.635M99.635,84.635L54.635,84.635L54.635,189.635L159.635,189.635M99.635,189.635L99.635,159.635L114.635,159.635M84.635,189.635L84.635,249.635L114.635,249.635M114.635,9.635C114.635,51.057 67.625,84.635 9.635,84.635M84.635,249.635L54.635,249.635L54.635,294.635L114.635,294.635M99.635,114.635L114.635,114.635M99.635,54.635L129.635,84.635M114.635,39.635C114.635,56.204 128.067,69.635 144.635,69.635M129.635,84.635L114.635,84.635M129.635,84.635L174.635,84.635L174.635,189.635L69.635,189.635M129.635,189.635L129.635,159.635L114.635,159.635M144.635,189.635L144.635,249.635L114.635,249.635M114.635,9.635C114.635,51.057 161.645,84.635 219.635,84.635M144.635,249.635L174.635,249.635L174.635,294.635L114.635,294.635M129.635,114.635L114.635,114.635M129.635,54.635L99.635,84.635M114.635,39.635C114.635,56.204 101.204,69.635 84.635,69.635" style="fill:none;fill-rule:nonzero;stroke:rgb(199,107,107);stroke-width:19px;"/>
    <g id="grass3.svg" transform="matrix(1,0,0,1,173.283,294.635)">
        <g transform="matrix(1,0,0,1,-38.6211,-16.1211)">
            <path id="path3812" d="M38.621,23.621L38.621,8.621M53.621,23.621C53.621,15.337 60.337,8.621 68.621,8.621M23.621,23.621C23.621,15.337 16.905,8.621 8.621,8.621" style="fill:none;fill-rule:nonzero;stroke:rgb(138,199,107);stroke-width:17px;"/>
        </g>
    </g>
</svg>
