<?xml version="1.0" encoding="UTF-8" standalone="no"?>
<!DOCTYPE svg PUBLIC "-//W3C//DTD SVG 1.1//EN" "http://www.w3.org/Graphics/SVG/1.1/DTD/svg11.dtd">
<svg width="100%" height="100%" viewBox="0 0 320 320" version="1.1" xmlns="http://www.w3.org/2000/svg" xmlns:xlink="http://www.w3.org/1999/xlink" xml:space="preserve" xmlns:serif="http://www.serif.com/" style="fill-rule:evenodd;clip-rule:evenodd;stroke-linecap:round;stroke-linejoin:round;">
    <path id="path3759" d="M129.596,9.635C129.596,67.625 82.586,114.635 24.596,114.635M129.596,9.635L159.596,9.635M159.596,114.635L24.596,114.635L24.596,144.635L9.596,159.635M99.596,114.635L99.596,219.635L159.596,219.635M144.596,174.635L144.596,204.635L159.596,204.635M69.596,219.635L159.596,219.635M69.596,219.635L69.596,249.635L39.596,249.635L39.596,309.635L159.596,309.635M159.596,249.635L69.596,249.635M69.596,114.635L69.596,144.635L54.596,159.635M144.596,174.635L174.596,174.635M144.596,174.635L174.596,204.635M189.596,9.635C189.596,67.625 236.606,114.635 294.596,114.635M189.596,9.635L159.596,9.635M159.596,114.635L294.596,114.635L294.596,144.635L309.596,159.635M219.596,114.635L219.596,219.635L159.596,219.635M174.596,174.635L174.596,204.635L159.596,204.635M249.596,219.635L159.596,219.635M249.596,219.635L249.596,249.635L279.596,249.635L279.596,309.635L159.596,309.635M159.596,249.635L249.596,249.635M249.596,114.635L249.596,144.635L264.596,159.635M174.596,174.635L144.596,174.635M174.596,174.635L144.596,204.635" style="fill:none;fill-rule:nonzero;stroke:rgb(199,107,107);stroke-width:19px;"/>
    <g id="Layer1">
        <g id="path3868" transform="matrix(1,0,0,1,242.364,280.515)">
            <path d="M38.621,38.621L38.621,8.621M23.621,38.621C23.621,22.053 16.905,8.621 8.621,8.621M53.621,38.621C53.621,22.053 60.337,8.621 68.621,8.621" style="fill:none;fill-rule:nonzero;stroke:rgb(138,199,107);stroke-width:17px;"/>
        </g>
        <g id="path3812" transform="matrix(-1,0,0,1,48.4026,292.713)">
            <path d="M8.501,23.621L8.501,8.621M23.501,23.621C23.501,15.337 30.217,8.621 38.501,8.621" style="fill:none;fill-rule:nonzero;stroke:rgb(138,199,107);stroke-width:17px;"/>
        </g>
    </g>
</svg>
